<mxfile host="Electron" modified="2023-12-14T15:43:10.351Z" agent="Mozilla/5.0 (X11; Linux x86_64) AppleWebKit/537.36 (KHTML, like Gecko) draw.io/22.1.2 Chrome/114.0.5735.289 Electron/25.9.4 Safari/537.36" etag="3cJxbDQ1N6hohGTJ8SI9" version="22.1.2" type="device">
  <diagram name="Page-1" id="2YBvvXClWsGukQMizWep">
    <mxGraphModel dx="1839" dy="601" grid="1" gridSize="10" guides="1" tooltips="1" connect="1" arrows="1" fold="1" page="1" pageScale="1" pageWidth="850" pageHeight="1100" math="0" shadow="0">
      <root>
        <mxCell id="0" />
        <mxCell id="1" parent="0" />
        <mxCell id="aM9ryv3xv72pqoxQDRHE-1" value=":Login Page" style="shape=umlLifeline;perimeter=lifelinePerimeter;whiteSpace=wrap;html=1;container=0;dropTarget=0;collapsible=0;recursiveResize=0;outlineConnect=0;portConstraint=eastwest;newEdgeStyle={&quot;edgeStyle&quot;:&quot;elbowEdgeStyle&quot;,&quot;elbow&quot;:&quot;vertical&quot;,&quot;curved&quot;:0,&quot;rounded&quot;:0};strokeWidth=2;fillColor=#f8cecc;strokeColor=#b85450;" parent="1" vertex="1">
          <mxGeometry x="70" y="40" width="100" height="600" as="geometry" />
        </mxCell>
        <mxCell id="aM9ryv3xv72pqoxQDRHE-7" value="Enter user name" style="html=1;verticalAlign=bottom;endArrow=block;edgeStyle=elbowEdgeStyle;elbow=vertical;curved=0;rounded=0;exitX=0.964;exitY=0.125;exitDx=0;exitDy=0;exitPerimeter=0;" parent="1" source="MKfd_UI0VcR1PnhspANN-18" edge="1">
          <mxGeometry relative="1" as="geometry">
            <mxPoint x="-60" y="110" as="sourcePoint" />
            <Array as="points">
              <mxPoint x="25" y="110" />
            </Array>
            <mxPoint x="110" y="110" as="targetPoint" />
          </mxGeometry>
        </mxCell>
        <mxCell id="MKfd_UI0VcR1PnhspANN-1" value="User" style="shape=umlActor;verticalLabelPosition=bottom;verticalAlign=top;html=1;outlineConnect=0;fillColor=#dae8fc;strokeColor=#6c8ebf;" vertex="1" parent="1">
          <mxGeometry x="-95" y="7" width="30" height="60" as="geometry" />
        </mxCell>
        <mxCell id="MKfd_UI0VcR1PnhspANN-6" value="" style="endArrow=none;dashed=1;html=1;rounded=0;strokeWidth=2;fillColor=#dae8fc;strokeColor=#6c8ebf;" edge="1" parent="1" source="MKfd_UI0VcR1PnhspANN-18">
          <mxGeometry width="50" height="50" relative="1" as="geometry">
            <mxPoint x="-80" y="640" as="sourcePoint" />
            <mxPoint x="-80" y="88" as="targetPoint" />
            <Array as="points">
              <mxPoint x="-80" y="90" />
            </Array>
          </mxGeometry>
        </mxCell>
        <mxCell id="MKfd_UI0VcR1PnhspANN-8" value=":Django Backend" style="shape=umlLifeline;perimeter=lifelinePerimeter;whiteSpace=wrap;html=1;container=0;dropTarget=0;collapsible=0;recursiveResize=0;outlineConnect=0;portConstraint=eastwest;newEdgeStyle={&quot;edgeStyle&quot;:&quot;elbowEdgeStyle&quot;,&quot;elbow&quot;:&quot;vertical&quot;,&quot;curved&quot;:0,&quot;rounded&quot;:0};strokeWidth=2;fillColor=#d5e8d4;strokeColor=#82b366;" vertex="1" parent="1">
          <mxGeometry x="270" y="40" width="100" height="600" as="geometry" />
        </mxCell>
        <mxCell id="MKfd_UI0VcR1PnhspANN-12" value=":PostgreSQL DB" style="shape=umlLifeline;perimeter=lifelinePerimeter;whiteSpace=wrap;html=1;container=0;dropTarget=0;collapsible=0;recursiveResize=0;outlineConnect=0;portConstraint=eastwest;newEdgeStyle={&quot;edgeStyle&quot;:&quot;elbowEdgeStyle&quot;,&quot;elbow&quot;:&quot;vertical&quot;,&quot;curved&quot;:0,&quot;rounded&quot;:0};strokeWidth=2;fillColor=#e1d5e7;strokeColor=#9673a6;" vertex="1" parent="1">
          <mxGeometry x="460" y="40" width="100" height="600" as="geometry" />
        </mxCell>
        <mxCell id="MKfd_UI0VcR1PnhspANN-16" value="Enter a password" style="html=1;verticalAlign=bottom;endArrow=block;edgeStyle=elbowEdgeStyle;elbow=vertical;curved=0;rounded=0;exitX=1;exitY=0.5;exitDx=0;exitDy=0;" edge="1" parent="1" source="MKfd_UI0VcR1PnhspANN-18">
          <mxGeometry relative="1" as="geometry">
            <mxPoint x="-60" y="140" as="sourcePoint" />
            <Array as="points">
              <mxPoint x="25" y="140" />
            </Array>
            <mxPoint x="110" y="140" as="targetPoint" />
          </mxGeometry>
        </mxCell>
        <mxCell id="MKfd_UI0VcR1PnhspANN-17" value="Click login button" style="html=1;verticalAlign=bottom;endArrow=block;edgeStyle=elbowEdgeStyle;elbow=vertical;curved=0;rounded=0;exitX=0.964;exitY=0.875;exitDx=0;exitDy=0;exitPerimeter=0;" edge="1" parent="1" source="MKfd_UI0VcR1PnhspANN-18">
          <mxGeometry relative="1" as="geometry">
            <mxPoint x="-40" y="170" as="sourcePoint" />
            <Array as="points">
              <mxPoint x="45" y="170" />
            </Array>
            <mxPoint x="110" y="170" as="targetPoint" />
          </mxGeometry>
        </mxCell>
        <mxCell id="MKfd_UI0VcR1PnhspANN-21" value="" style="rounded=0;whiteSpace=wrap;html=1;fillColor=#f8cecc;strokeColor=#b85450;" vertex="1" parent="1">
          <mxGeometry x="110" y="100" width="20" height="100" as="geometry" />
        </mxCell>
        <mxCell id="MKfd_UI0VcR1PnhspANN-22" value="Post Request with user info" style="html=1;verticalAlign=bottom;endArrow=block;edgeStyle=elbowEdgeStyle;elbow=vertical;curved=0;rounded=0;" edge="1" parent="1">
          <mxGeometry relative="1" as="geometry">
            <mxPoint x="130" y="190.31" as="sourcePoint" />
            <Array as="points" />
            <mxPoint x="310" y="190.31" as="targetPoint" />
          </mxGeometry>
        </mxCell>
        <mxCell id="MKfd_UI0VcR1PnhspANN-23" value="" style="rounded=0;whiteSpace=wrap;html=1;fillColor=#d5e8d4;strokeColor=#82b366;" vertex="1" parent="1">
          <mxGeometry x="310" y="180" width="20" height="370" as="geometry" />
        </mxCell>
        <mxCell id="MKfd_UI0VcR1PnhspANN-24" value="Query the DB" style="html=1;verticalAlign=bottom;endArrow=block;edgeStyle=elbowEdgeStyle;elbow=vertical;curved=0;rounded=0;exitX=0.964;exitY=0.875;exitDx=0;exitDy=0;exitPerimeter=0;" edge="1" parent="1">
          <mxGeometry relative="1" as="geometry">
            <mxPoint x="330" y="210" as="sourcePoint" />
            <Array as="points">
              <mxPoint x="426" y="210" />
            </Array>
            <mxPoint x="500" y="210" as="targetPoint" />
          </mxGeometry>
        </mxCell>
        <mxCell id="MKfd_UI0VcR1PnhspANN-25" value="" style="rounded=0;whiteSpace=wrap;html=1;fillColor=#e1d5e7;strokeColor=#9673a6;" vertex="1" parent="1">
          <mxGeometry x="500" y="200" width="20" height="50" as="geometry" />
        </mxCell>
        <mxCell id="MKfd_UI0VcR1PnhspANN-26" value="User info from DB" style="html=1;verticalAlign=bottom;endArrow=open;dashed=1;endSize=8;edgeStyle=elbowEdgeStyle;elbow=vertical;curved=0;rounded=0;" edge="1" parent="1">
          <mxGeometry relative="1" as="geometry">
            <mxPoint x="330" y="240" as="targetPoint" />
            <Array as="points">
              <mxPoint x="425" y="240" />
            </Array>
            <mxPoint x="500" y="240" as="sourcePoint" />
          </mxGeometry>
        </mxCell>
        <mxCell id="MKfd_UI0VcR1PnhspANN-28" value="Validate" style="html=1;verticalAlign=bottom;endArrow=block;edgeStyle=orthogonalEdgeStyle;rounded=0;exitX=0.964;exitY=0.875;exitDx=0;exitDy=0;exitPerimeter=0;" edge="1" parent="1">
          <mxGeometry x="0.6429" y="-10" relative="1" as="geometry">
            <mxPoint x="330" y="260" as="sourcePoint" />
            <Array as="points">
              <mxPoint x="330" y="261" />
              <mxPoint x="400" y="261" />
              <mxPoint x="400" y="300" />
            </Array>
            <mxPoint x="330" y="300" as="targetPoint" />
            <mxPoint as="offset" />
          </mxGeometry>
        </mxCell>
        <mxCell id="MKfd_UI0VcR1PnhspANN-34" value="" style="endArrow=none;dashed=1;html=1;rounded=0;strokeWidth=2;fillColor=#dae8fc;strokeColor=#6c8ebf;" edge="1" parent="1" target="MKfd_UI0VcR1PnhspANN-18">
          <mxGeometry width="50" height="50" relative="1" as="geometry">
            <mxPoint x="-80" y="640" as="sourcePoint" />
            <mxPoint x="-80" y="88" as="targetPoint" />
          </mxGeometry>
        </mxCell>
        <mxCell id="MKfd_UI0VcR1PnhspANN-31" value="" style="swimlane;startSize=0;" vertex="1" parent="1">
          <mxGeometry x="-120" y="330" width="680" height="300" as="geometry">
            <mxRectangle x="-30" y="380" width="50" height="40" as="alternateBounds" />
          </mxGeometry>
        </mxCell>
        <mxCell id="MKfd_UI0VcR1PnhspANN-32" value="User login accepted" style="html=1;verticalAlign=bottom;endArrow=open;dashed=1;endSize=8;edgeStyle=elbowEdgeStyle;elbow=vertical;curved=0;rounded=0;" edge="1" parent="MKfd_UI0VcR1PnhspANN-31">
          <mxGeometry relative="1" as="geometry">
            <mxPoint x="250" y="30" as="targetPoint" />
            <Array as="points" />
            <mxPoint x="430" y="30" as="sourcePoint" />
          </mxGeometry>
        </mxCell>
        <mxCell id="MKfd_UI0VcR1PnhspANN-33" value="User login rejected" style="html=1;verticalAlign=bottom;endArrow=open;dashed=1;endSize=8;edgeStyle=elbowEdgeStyle;elbow=vertical;curved=0;rounded=0;" edge="1" parent="MKfd_UI0VcR1PnhspANN-31">
          <mxGeometry relative="1" as="geometry">
            <mxPoint x="250" y="210" as="targetPoint" />
            <Array as="points">
              <mxPoint x="355" y="210" />
            </Array>
            <mxPoint x="430" y="210" as="sourcePoint" />
          </mxGeometry>
        </mxCell>
        <mxCell id="MKfd_UI0VcR1PnhspANN-35" value="" style="rounded=0;whiteSpace=wrap;html=1;fillColor=#f8cecc;strokeColor=#b85450;" vertex="1" parent="MKfd_UI0VcR1PnhspANN-31">
          <mxGeometry x="230" y="20" width="20" height="120" as="geometry" />
        </mxCell>
        <mxCell id="MKfd_UI0VcR1PnhspANN-36" value="Redirect&lt;br&gt;Home" style="html=1;verticalAlign=bottom;endArrow=block;edgeStyle=orthogonalEdgeStyle;rounded=0;" edge="1" parent="MKfd_UI0VcR1PnhspANN-31">
          <mxGeometry x="0.6673" y="-10" relative="1" as="geometry">
            <mxPoint x="250" y="50" as="sourcePoint" />
            <Array as="points">
              <mxPoint x="250" y="50" />
              <mxPoint x="320" y="50" />
              <mxPoint x="320" y="100" />
            </Array>
            <mxPoint x="250.03" y="100" as="targetPoint" />
            <mxPoint as="offset" />
          </mxGeometry>
        </mxCell>
        <mxCell id="MKfd_UI0VcR1PnhspANN-38" value="" style="rounded=0;whiteSpace=wrap;html=1;fillColor=#f8cecc;strokeColor=#b85450;" vertex="1" parent="MKfd_UI0VcR1PnhspANN-31">
          <mxGeometry x="230" y="200" width="20" height="40" as="geometry" />
        </mxCell>
        <mxCell id="MKfd_UI0VcR1PnhspANN-39" value="" style="html=1;verticalAlign=bottom;endArrow=open;dashed=1;endSize=8;edgeStyle=elbowEdgeStyle;elbow=vertical;curved=0;rounded=0;" edge="1" parent="MKfd_UI0VcR1PnhspANN-31">
          <mxGeometry relative="1" as="geometry">
            <mxPoint x="50" y="230" as="targetPoint" />
            <Array as="points">
              <mxPoint x="155" y="230" />
            </Array>
            <mxPoint x="230" y="230" as="sourcePoint" />
          </mxGeometry>
        </mxCell>
        <mxCell id="MKfd_UI0VcR1PnhspANN-40" value="alt" style="rounded=1;whiteSpace=wrap;html=1;fontColor=#B3B3B3;strokeColor=#B3B3B3;" vertex="1" parent="MKfd_UI0VcR1PnhspANN-31">
          <mxGeometry width="30" height="20" as="geometry" />
        </mxCell>
        <mxCell id="MKfd_UI0VcR1PnhspANN-41" value="[correct user name and password]" style="text;html=1;strokeColor=none;fillColor=none;align=center;verticalAlign=middle;whiteSpace=wrap;rounded=0;fontColor=#999999;" vertex="1" parent="MKfd_UI0VcR1PnhspANN-31">
          <mxGeometry x="40" width="190" height="30" as="geometry" />
        </mxCell>
        <mxCell id="MKfd_UI0VcR1PnhspANN-42" value="[incorrect user name and password]" style="text;html=1;strokeColor=none;fillColor=none;align=center;verticalAlign=middle;whiteSpace=wrap;rounded=0;fontColor=#999999;" vertex="1" parent="MKfd_UI0VcR1PnhspANN-31">
          <mxGeometry x="40" y="150" width="200" height="30" as="geometry" />
        </mxCell>
        <mxCell id="MKfd_UI0VcR1PnhspANN-44" value="clear the password box and inform about unaccepted &lt;br&gt;user-password combination" style="text;html=1;strokeColor=none;fillColor=none;align=center;verticalAlign=middle;whiteSpace=wrap;rounded=0;" vertex="1" parent="MKfd_UI0VcR1PnhspANN-31">
          <mxGeometry x="50" y="240" width="180" height="30" as="geometry" />
        </mxCell>
        <mxCell id="MKfd_UI0VcR1PnhspANN-46" value="Successfull login (message)" style="html=1;verticalAlign=bottom;endArrow=open;dashed=1;endSize=8;edgeStyle=elbowEdgeStyle;elbow=vertical;curved=0;rounded=0;" edge="1" parent="MKfd_UI0VcR1PnhspANN-31">
          <mxGeometry relative="1" as="geometry">
            <mxPoint x="50" y="120" as="targetPoint" />
            <Array as="points">
              <mxPoint x="155" y="120" />
            </Array>
            <mxPoint x="230" y="120" as="sourcePoint" />
          </mxGeometry>
        </mxCell>
        <mxCell id="MKfd_UI0VcR1PnhspANN-43" value="" style="rounded=0;whiteSpace=wrap;html=1;fillColor=#dae8fc;strokeColor=#6c8ebf;" vertex="1" parent="MKfd_UI0VcR1PnhspANN-31">
          <mxGeometry x="30" y="220" width="20" height="50" as="geometry" />
        </mxCell>
        <mxCell id="MKfd_UI0VcR1PnhspANN-48" value="" style="rounded=0;whiteSpace=wrap;html=1;fillColor=#dae8fc;strokeColor=#6c8ebf;" vertex="1" parent="MKfd_UI0VcR1PnhspANN-31">
          <mxGeometry x="30" y="110" width="20" height="30" as="geometry" />
        </mxCell>
        <mxCell id="MKfd_UI0VcR1PnhspANN-18" value="" style="rounded=0;whiteSpace=wrap;html=1;fillColor=#dae8fc;strokeColor=#6c8ebf;" vertex="1" parent="1">
          <mxGeometry x="-90" y="100" width="20" height="80" as="geometry" />
        </mxCell>
        <mxCell id="MKfd_UI0VcR1PnhspANN-37" value="" style="endArrow=none;dashed=1;html=1;rounded=0;exitX=0;exitY=0.5;exitDx=0;exitDy=0;entryX=1;entryY=0.5;entryDx=0;entryDy=0;strokeWidth=2;strokeColor=#B3B3B3;" edge="1" parent="1" source="MKfd_UI0VcR1PnhspANN-31" target="MKfd_UI0VcR1PnhspANN-31">
          <mxGeometry width="50" height="50" relative="1" as="geometry">
            <mxPoint x="310" y="440" as="sourcePoint" />
            <mxPoint x="360" y="390" as="targetPoint" />
          </mxGeometry>
        </mxCell>
      </root>
    </mxGraphModel>
  </diagram>
</mxfile>
